# xmcd
#
# Track frame offsets: 
#        182
#        17595
#        36320
#        54550
#        70375
#        89280
#        109155
#        132632
#        152582
#        172497
#        191567
#        209202
#        224815
#        238382
#        252257
#
# Disc length: 3615 seconds
#
# Revision: 2
# Processed by: cddbd v1.5.2PL0 Copyright (c) Steve Scherf et al.
# Submitted via: ExactAudioCopy v1.0b3
#
DISCID=f50e1d0f
DTITLE=林志穎 - 華納我愛經典系列: 林志穎 [Disc 2]
DYEAR=1999
DGENRE=Pop
TTITLE0=輕輕說聲愛你
TTITLE1=戲夢
TTITLE2=是不是你
TTITLE3=看著我的眼晴
TTITLE4=等待的男孩
TTITLE5=為什麼受傷的總是我
TTITLE6=十七歲的雨季
TTITLE7=全心全意 I LOVE YOU
TTITLE8=生日禮物
TTITLE9=給我一個心愛的
TTITLE10=雨季
TTITLE11=愛情
TTITLE12=勇敢接受我的愛
TTITLE13=快樂要自己追逐
TTITLE14=全新的愛
EXTD=
EXTT0=
EXTT1=
EXTT2=
EXTT3=
EXTT4=
EXTT5=
EXTT6=
EXTT7=
EXTT8=
EXTT9=
EXTT10=
EXTT11=
EXTT12=
EXTT13=
EXTT14=
PLAYORDER=
